HIERARCHY
ROOT Hips
{
    OFFSET 0.000000 0.000000 0.000000
    CHANNELS 6 Xposition Yposition Zposition Zrotation Yrotation Xrotation
    JOINT Chest
    {
        OFFSET 0.000000 1.634758 -0.000000
        CHANNELS 3 Zrotation Yrotation Xrotation
        JOINT Chest2
        {
            OFFSET 0.000000 2.197341 0.000000
            CHANNELS 3 Zrotation Yrotation Xrotation
            JOINT Neck
            {
                OFFSET 0.000000 0.961544 0.000000
                CHANNELS 3 Zrotation Yrotation Xrotation
                JOINT Head
                {
                    OFFSET 0.000000 0.632542 -0.032565
                    CHANNELS 3 Zrotation Yrotation Xrotation
                    End Site
                    {
                        OFFSET -0.000001 0.439502 2.922845
                    }
                }
            }
            JOINT LeftCollar
            {
                OFFSET 0.167536 0.778237 -0.168280
                CHANNELS 3 Zrotation Yrotation Xrotation
                JOINT LeftShoulder
                {
                    OFFSET 0.831514 -0.002900 0.006458
                    CHANNELS 3 Zrotation Yrotation Xrotation
                    JOINT LeftElbow
                    {
                        OFFSET 2.272872 -0.026639 0.059314
                        CHANNELS 3 Zrotation Yrotation Xrotation
                        JOINT LeftWrist
                        {
                            OFFSET 2.081982 -0.024402 0.054333
                            CHANNELS 3 Zrotation Yrotation Xrotation
                            JOINT LeftHandThumb1
                            {
                                OFFSET 0.218903 -0.128645 0.283837
                                CHANNELS 3 Zrotation Yrotation Xrotation
                                JOINT LeftHandThumb2
                                {
                                    OFFSET 0.137157 -0.025101 0.077902
                                    CHANNELS 3 Zrotation Yrotation Xrotation
                                    JOINT LeftHandThumb3
                                    {
                                        OFFSET 0.159372 -0.063394 0.064195
                                        CHANNELS 3 Zrotation Yrotation Xrotation
                                        End Site
                                        {
                                            OFFSET 0.200614 -0.032096 0.174814
                                        }
                                    }
                                }
                            }
                            JOINT LeftHandFore1
                            {
                                OFFSET 0.767340 -0.016076 0.196678
                                CHANNELS 3 Zrotation Yrotation Xrotation
                                JOINT LeftHandFore2
                                {
                                    OFFSET 0.215173 -0.024035 0.010864
                                    CHANNELS 3 Zrotation Yrotation Xrotation
                                    JOINT LeftHandFore3
                                    {
                                        OFFSET 0.129316 0.000782 0.006302
                                        CHANNELS 3 Zrotation Yrotation Xrotation
                                        End Site
                                        {
                                            OFFSET 0.190193 0.034243 0.004553
                                        }
                                    }
                                }
                            }
                            JOINT LeftHandMiddle1
                            {
                                OFFSET 0.709887 -0.008320 0.018526
                                CHANNELS 3 Zrotation Yrotation Xrotation
                                JOINT LeftHandMiddle2
                                {
                                    OFFSET 0.243305 -0.028680 0.006624
                                    CHANNELS 3 Zrotation Yrotation Xrotation
                                    JOINT LeftHandMiddle3
                                    {
                                        OFFSET 0.139757 -0.042789 0.004506
                                        CHANNELS 3 Zrotation Yrotation Xrotation
                                        End Site
                                        {
                                            OFFSET 0.206804 -0.113094 0.008492
                                        }
                                    }
                                }
                            }
                            JOINT LeftHandRing1
                            {
                                OFFSET 0.743817 -0.005823 -0.153668
                                CHANNELS 3 Zrotation Yrotation Xrotation
                                JOINT LeftHandRing2
                                {
                                    OFFSET 0.349394 -0.050632 -0.009675
                                    CHANNELS 3 Zrotation Yrotation Xrotation
                                    JOINT LeftHandRing3
                                    {
                                        OFFSET 0.127797 -0.047654 0.001597
                                        CHANNELS 3 Zrotation Yrotation Xrotation
                                        End Site
                                        {
                                            OFFSET 0.099358 -0.067423 0.001397
                                        }
                                    }
                                }
                            }
                            JOINT LeftHandLittle1
                            {
                                OFFSET 0.689408 -0.053302 -0.308304
                                CHANNELS 3 Zrotation Yrotation Xrotation
                                JOINT LeftHandLittle2
                                {
                                    OFFSET 0.193251 -0.018757 -0.018874
                                    CHANNELS 3 Zrotation Yrotation Xrotation
                                    JOINT LeftHandLittle3
                                    {
                                        OFFSET 0.110314 -0.046661 -0.012242
                                        CHANNELS 3 Zrotation Yrotation Xrotation
                                        End Site
                                        {
                                            OFFSET 0.172822 -0.079132 -0.012628
                                        }
                                    }
                                }
                            }
                        }
                    }
                }
            }
            JOINT RightCollar
            {
                OFFSET -0.167536 0.778237 -0.168280
                CHANNELS 3 Zrotation Yrotation Xrotation
                JOINT RightShoulder
                {
                    OFFSET -0.831514 -0.002900 0.006457
                    CHANNELS 3 Zrotation Yrotation Xrotation
                    JOINT RightElbow
                    {
                        OFFSET -2.272872 -0.026639 0.059313
                        CHANNELS 3 Zrotation Yrotation Xrotation
                        JOINT RightWrist
                        {
                            OFFSET -2.081982 -0.024402 0.054331
                            CHANNELS 3 Zrotation Yrotation Xrotation
                            JOINT RightHandThumb1
                            {
                                OFFSET -0.218911 -0.128571 0.283837
                                CHANNELS 3 Zrotation Yrotation Xrotation
                                JOINT RightHandThumb2
                                {
                                    OFFSET -0.137157 -0.025101 0.077902
                                    CHANNELS 3 Zrotation Yrotation Xrotation
                                    JOINT RightHandThumb3
                                    {
                                        OFFSET -0.155584 -0.095925 0.011460
                                        CHANNELS 3 Zrotation Yrotation Xrotation
                                        End Site
                                        {
                                            OFFSET -0.202110 -0.169271 0.048329
                                        }
                                    }
                                }
                            }
                            JOINT RightHandFore1
                            {
                                OFFSET -0.767344 -0.015991 0.196679
                                CHANNELS 3 Zrotation Yrotation Xrotation
                                JOINT RightHandFore2
                                {
                                    OFFSET -0.215607 -0.021811 -0.005906
                                    CHANNELS 3 Zrotation Yrotation Xrotation
                                    JOINT RightHandFore3
                                    {
                                        OFFSET -0.126174 -0.028882 -0.002830
                                        CHANNELS 3 Zrotation Yrotation Xrotation
                                        End Site
                                        {
                                            OFFSET -0.185109 -0.055689 0.000444
                                        }
                                    }
                                }
                            }
                            JOINT RightHandMiddle1
                            {
                                OFFSET -0.709887 -0.008302 0.018525
                                CHANNELS 3 Zrotation Yrotation Xrotation
                                JOINT RightHandMiddle2
                                {
                                    OFFSET -0.243441 -0.026511 -0.009768
                                    CHANNELS 3 Zrotation Yrotation Xrotation
                                    JOINT RightHandMiddle3
                                    {
                                        OFFSET -0.134609 -0.056908 -0.005128
                                        CHANNELS 3 Zrotation Yrotation Xrotation
                                        End Site
                                        {
                                            OFFSET -0.178164 -0.154413 -0.006657
                                        }
                                    }
                                }
                            }
                            JOINT RightHandRing1
                            {
                                OFFSET -0.743819 -0.005785 -0.153669
                                CHANNELS 3 Zrotation Yrotation Xrotation
                                JOINT RightHandRing2
                                {
                                    OFFSET -0.348869 -0.048841 -0.025259
                                    CHANNELS 3 Zrotation Yrotation Xrotation
                                    JOINT RightHandRing3
                                    {
                                        OFFSET -0.125966 -0.050529 -0.013577
                                        CHANNELS 3 Zrotation Yrotation Xrotation
                                        End Site
                                        {
                                            OFFSET -0.095366 -0.072309 -0.009844
                                        }
                                    }
                                }
                            }
                            JOINT RightHandLittle1
                            {
                                OFFSET -0.689403 -0.053298 -0.308303
                                CHANNELS 3 Zrotation Yrotation Xrotation
                                JOINT RightHandLittle2
                                {
                                    OFFSET -0.191678 -0.017606 -0.031700
                                    CHANNELS 3 Zrotation Yrotation Xrotation
                                    JOINT RightHandLittle3
                                    {
                                        OFFSET -0.113153 -0.037455 -0.017002
                                        CHANNELS 3 Zrotation Yrotation Xrotation
                                        End Site
                                        {
                                            OFFSET -0.180079 -0.051831 -0.034254
                                        }
                                    }
                                }
                            }
                        }
                    }
                }
            }
        }
    }
    JOINT LeftHip
    {
        OFFSET 0.685143 0.673822 -0.044491
        CHANNELS 3 Zrotation Yrotation Xrotation
        JOINT LeftKnee
        {
            OFFSET 0.085364 -3.750208 0.017676
            CHANNELS 3 Zrotation Yrotation Xrotation
            JOINT LeftAnkle
            {
                OFFSET 0.094583 -4.155206 0.019585
                CHANNELS 3 Zrotation Yrotation Xrotation
                JOINT LeftToe
                {
                    OFFSET -0.000000 -0.395925 0.621478
                    CHANNELS 3 Zrotation Yrotation Xrotation
                    End Site
                    {
                        OFFSET -0.000000 -0.077878 0.321152
                    }
                }
            }
        }
    }
    JOINT RightHip
    {
        OFFSET -0.685143 0.673822 -0.044492
        CHANNELS 3 Zrotation Yrotation Xrotation
        JOINT RightKnee
        {
            OFFSET -0.085364 -3.750208 0.017677
            CHANNELS 3 Zrotation Yrotation Xrotation
            JOINT RightAnkle
            {
                OFFSET -0.094583 -4.155206 0.019585
                CHANNELS 3 Zrotation Yrotation Xrotation
                JOINT RightToe
                {
                    OFFSET -0.000000 -0.395925 0.621478
                    CHANNELS 3 Zrotation Yrotation Xrotation
                    End Site
                    {
                        OFFSET -0.000000 -0.077878 0.321152
                    }
                }
            }
        }
    }
}
MOTION
Frames: 4
Frame Time: 0.033333
0.085707 8.314864 -0.435654 179.114883 0.773953 179.696548 -0.036101 0.192456 -6.448198 0.041155 -0.032962 -3.636509 -2.198329 0.190542 12.362256 -0.016122 0.313329 25.989700 -13.125737 4.875816 0.008842 -57.195026 34.213779 0.171687 0.166003 -36.952778 -0.504179 -10.018287 0.507218 20.509666 -0.000001 0.000002 -0.000005 0.000001 0.000003 0.000001 -0.000001 0.000001 0.000006 -0.000000 0.000001 -0.000001 -0.000000 0.000001 -0.000001 -0.000001 0.000002 -0.000002 0.000000 0.000001 -0.000003 0.000001 -0.000001 0.000000 0.000006 -0.000000 0.000003 0.000000 -0.000001 -0.000002 0.000001 0.000001 0.000000 -0.000001 0.000002 0.000001 -0.000001 -0.000000 -0.000003 0.000001 -0.000000 0.000003 0.000001 0.000002 -0.000002 14.693252 4.650354 -0.007106 66.839943 0.691374 11.419845 -0.128227 33.160133 -0.437999 26.832888 -14.363900 40.561092 0.000000 -0.000002 0.000000 0.000002 0.000006 0.000001 0.000003 -0.000002 -0.000001 0.000002 -0.000003 -0.000003 -0.000005 0.000008 0.000000 0.000003 -0.000003 -0.000003 0.000002 -0.000000 -0.000002 -0.000002 -0.000000 0.000001 0.000000 -0.000003 0.000001 0.000005 -0.000000 -0.000001 -0.000002 -0.000001 -0.000002 0.000000 0.000002 0.000003 0.000000 0.000004 -0.000003 0.000002 -0.000006 -0.000001 -0.000002 0.000003 0.000001 16.430613 27.038778 -7.553141 0.091676 0.480306 21.610064 -5.334576 -19.322632 -16.071663 -0.000001 -0.000001 -0.000001 -17.010969 -22.685585 -6.445330 -0.058266 -0.385494 17.192434 7.637844 18.623940 -9.206292 0.000001 0.000002 0.000005
0.085654 8.314864 -0.435698 179.114899 0.773791 179.696548 -0.035459 0.192699 -6.448954 0.041835 -0.033053 -3.636895 -2.198258 0.190359 12.362633 -0.016089 0.312689 25.990471 -13.125848 4.876143 0.008813 -57.196247 34.214947 0.172905 0.166025 -36.953621 -0.504190 -10.018296 0.507229 20.509758 0.000005 0.000013 0.000006 -0.000001 0.000001 -0.000003 0.000003 0.000003 0.000004 -0.000001 0.000005 -0.000008 0.000001 0.000001 -0.000003 -0.000001 0.000001 -0.000001 0.000003 0.000001 -0.000003 -0.000001 0.000001 -0.000003 0.000001 -0.000000 0.000001 0.000001 0.000002 -0.000008 0.000003 0.000003 0.000001 -0.000004 -0.000000 0.000000 0.000002 0.000003 -0.000011 -0.000000 0.000002 0.000001 -0.000000 -0.000000 -0.000003 14.693176 4.650116 -0.007072 66.839020 0.689271 11.418704 -0.128242 33.161839 -0.438029 26.833744 -14.363791 40.561264 0.000007 -0.000000 -0.000005 0.000002 0.000003 0.000003 0.000002 0.000000 0.000002 0.000010 -0.000000 -0.000005 0.000000 0.000005 0.000000 0.000000 0.000004 -0.000004 0.000009 0.000001 -0.000003 0.000000 0.000003 -0.000002 -0.000002 0.000003 0.000001 0.000007 0.000002 -0.000013 0.000009 -0.000002 0.000001 0.000002 0.000001 -0.000001 0.000007 0.000002 -0.000009 -0.000002 0.000004 -0.000001 0.000000 0.000001 0.000003 16.430258 27.037914 -7.553448 0.091689 0.480330 21.611179 -5.333671 -19.322035 -16.073032 0.000001 -0.000003 -0.000000 -17.011457 -22.684532 -6.443952 -0.058255 -0.385456 17.190622 7.637951 18.622984 -9.206347 0.000001 0.000001 0.000000
0.085497 8.314864 -0.435829 179.114899 0.773310 179.696548 -0.033543 0.193411 -6.451206 0.043871 -0.033320 -3.638076 -2.198048 0.189815 12.363765 -0.015991 0.310794 25.992805 -13.126324 4.877145 0.008723 -57.199722 34.218430 0.176556 0.166045 -36.956188 -0.504241 -10.018331 0.507259 20.510006 0.000001 -0.000000 -0.000009 -0.000001 0.000002 -0.000004 0.000003 0.000002 0.000005 0.000002 0.000005 -0.000006 -0.000002 0.000003 -0.000001 -0.000001 0.000003 0.000002 0.000003 0.000003 -0.000003 -0.000001 0.000002 -0.000001 0.000003 0.000004 -0.000004 0.000003 0.000005 -0.000002 0.000001 -0.000000 0.000001 -0.000001 -0.000000 -0.000003 0.000002 0.000006 -0.000003 0.000002 0.000002 -0.000003 -0.000001 0.000001 -0.000003 14.693020 4.649383 -0.006967 66.836273 0.683287 11.415386 -0.128286 33.166210 -0.438102 26.836287 -14.363483 40.561764 0.000002 -0.000005 -0.000007 -0.000002 0.000000 0.000005 0.000005 0.000001 0.000001 -0.000002 0.000001 0.000000 0.000002 -0.000000 0.000003 0.000002 0.000008 -0.000008 0.000005 0.000003 0.000007 0.000003 0.000005 -0.000003 -0.000002 0.000005 -0.000001 0.000000 -0.000003 -0.000001 0.000003 0.000003 0.000002 0.000003 0.000005 0.000001 0.000002 0.000001 0.000004 -0.000002 0.000003 0.000001 0.000000 0.000007 0.000004 16.429228 27.035410 -7.554271 0.091714 0.480402 21.614344 -5.330995 -19.320297 -16.077023 0.000002 0.000006 0.000002 -17.012903 -22.681400 -6.439741 -0.058215 -0.385330 17.185001 7.638312 18.620142 -9.206405 0.000002 0.000006 0.000002
0.085236 8.314864 -0.436046 179.114929 0.772518 179.696548 -0.030372 0.194585 -6.454933 0.047241 -0.033762 -3.640042 -2.197702 0.188916 12.365639 -0.015830 0.307663 25.996675 -13.127131 4.878811 0.008576 -57.205448 34.224121 0.182618 0.166099 -36.960236 -0.504317 -10.018385 0.507304 20.510427 0.000000 0.000011 -0.000001 -0.000001 0.000001 -0.000002 0.000002 0.000003 0.000001 -0.000004 0.000003 -0.000008 -0.000001 0.000005 -0.000001 -0.000004 0.000003 0.000004 -0.000003 0.000004 0.000002 0.000001 0.000003 -0.000003 0.000003 0.000004 0.000003 -0.000003 0.000003 -0.000004 -0.000001 0.000001 -0.000001 -0.000001 -0.000001 0.000002 -0.000003 0.000001 -0.000006 0.000001 0.000002 0.000002 0.000003 -0.000000 -0.000002 14.692707 4.648178 -0.006794 66.831757 0.673314 11.409883 -0.128348 33.173565 -0.438224 26.840502 -14.362966 40.562584 -0.000005 -0.000013 -0.000002 0.000000 0.000003 -0.000002 0.000007 0.000001 -0.000001 0.000000 -0.000006 0.000015 0.000003 0.000013 0.000002 0.000002 0.000009 -0.000011 -0.000002 -0.000003 0.000017 0.000000 0.000011 0.000000 0.000000 0.000009 0.000007 0.000002 -0.000009 0.000007 0.000005 0.000006 0.000002 0.000003 0.000008 0.000006 -0.000002 0.000000 0.000014 0.000005 0.000006 -0.000003 0.000005 0.000013 0.000003 16.427521 27.031250 -7.555722 0.091758 0.480509 21.619734 -5.326547 -19.317423 -16.083698 0.000003 0.000006 -0.000006 -17.015297 -22.676226 -6.432856 -0.058152 -0.385130 17.175873 7.638879 18.615450 -9.206580 -0.000001 -0.000001 0.000006
